<svg xmlns="http://www.w3.org/2000/svg" viewBox="0 0 500 500">
  <!-- Background elements -->
  <rect x="0" y="0" width="500" height="500" fill="white"/>
  
  <!-- Dashboard frame -->
  <rect x="50" y="50" width="400" height="300" rx="10" fill="#f5f5f5" stroke="#3C6E71" stroke-width="2"/>
  
  <!-- Header bar -->
  <rect x="50" y="50" width="400" height="40" rx="10" fill="#3C6E71"/>
  <circle cx="75" cy="70" r="7" fill="#ff6b6b"/>
  <circle cx="100" cy="70" r="7" fill="#ffd166"/>
  <circle cx="125" cy="70" r="7" fill="#06d6a0"/>
  
  <!-- Chart 1: Bar chart -->
  <rect x="70" y="110" width="160" height="120" rx="5" fill="white" stroke="#ddd" stroke-width="1"/>
  <rect x="90" y="170" width="20" height="40" fill="#3C6E71"/>
  <rect x="120" y="150" width="20" height="60" fill="#3C6E71"/>
  <rect x="150" y="130" width="20" height="80" fill="#3C6E71"/>
  <rect x="180" y="160" width="20" height="50" fill="#3C6E71"/>
  <line x1="70" y1="210" x2="230" y2="210" stroke="#333" stroke-width="1"/>
  <line x1="70" y1="210" x2="70" y2="110" stroke="#333" stroke-width="1"/>
  
  <!-- Chart 2: Line chart -->
  <rect x="270" y="110" width="160" height="120" rx="5" fill="white" stroke="#ddd" stroke-width="1"/>
  <polyline points="290,170 320,150 350,180 380,130 410,160" fill="none" stroke="#284B63" stroke-width="2"/>
  <circle cx="290" cy="170" r="4" fill="#284B63"/>
  <circle cx="320" cy="150" r="4" fill="#284B63"/>
  <circle cx="350" cy="180" r="4" fill="#284B63"/>
  <circle cx="380" cy="130" r="4" fill="#284B63"/>
  <circle cx="410" cy="160" r="4" fill="#284B63"/>
  <line x1="270" y1="210" x2="430" y2="210" stroke="#333" stroke-width="1"/>
  <line x1="270" y1="210" x2="270" y2="110" stroke="#333" stroke-width="1"/>
  
  <!-- Bottom stats panels -->
  <rect x="70" y="250" width="100" height="80" rx="5" fill="white" stroke="#ddd" stroke-width="1"/>
  <text x="120" y="280" font-family="Arial" font-size="12" text-anchor="middle" fill="#333">Sales</text>
  <text x="120" y="300" font-family="Arial" font-size="18" font-weight="bold" text-anchor="middle" fill="#3C6E71">$24.5K</text>
  
  <rect x="200" y="250" width="100" height="80" rx="5" fill="white" stroke="#ddd" stroke-width="1"/>
  <text x="250" y="280" font-family="Arial" font-size="12" text-anchor="middle" fill="#333">Users</text>
  <text x="250" y="300" font-family="Arial" font-size="18" font-weight="bold" text-anchor="middle" fill="#3C6E71">8,549</text>
  
  <rect x="330" y="250" width="100" height="80" rx="5" fill="white" stroke="#ddd" stroke-width="1"/>
  <text x="380" y="280" font-family="Arial" font-size="12" text-anchor="middle" fill="#333">Conversion</text>
  <text x="380" y="300" font-family="Arial" font-size="18" font-weight="bold" text-anchor="middle" fill="#3C6E71">15.2%</text>
  
  <!-- Data points for visualization -->
  <circle cx="150" cy="380" r="40" fill="#f5f5f5" stroke="#3C6E71" stroke-width="2"/>
  <circle cx="150" cy="380" r="30" fill="#3C6E71" opacity="0.6"/>
  <circle cx="150" cy="380" r="20" fill="#3C6E71" opacity="0.8"/>
  <circle cx="150" cy="380" r="10" fill="#3C6E71"/>
  
  <!-- Gears representing processing -->
  <g transform="translate(350, 380)">
    <circle cx="0" cy="0" r="30" fill="#f5f5f5" stroke="#284B63" stroke-width="2"/>
    <circle cx="0" cy="0" r="20" fill="#284B63" opacity="0.2"/>
    <path d="M0,-30 L5,-20 L-5,-20 Z" fill="#284B63"/>
    <path d="M0,30 L5,20 L-5,20 Z" fill="#284B63"/>
    <path d="M-30,0 L-20,5 L-20,-5 Z" fill="#284B63"/>
    <path d="M30,0 L20,5 L20,-5 Z" fill="#284B63"/>
    <path d="M-21,-21 L-14,-14 L-19,-9 Z" fill="#284B63"/>
    <path d="M21,21 L14,14 L19,9 Z" fill="#284B63"/>
    <path d="M-21,21 L-14,14 L-19,9 Z" fill="#284B63"/>
    <path d="M21,-21 L14,-14 L19,-9 Z" fill="#284B63"/>
  </g>
  
  <!-- Connecting lines representing data flow -->
  <path d="M190,380 C230,380 270,380 310,380" fill="none" stroke="#3C6E71" stroke-width="2" stroke-dasharray="5,5"/>
  
  <!-- Small decorative elements -->
  <circle cx="250" cy="360" r="5" fill="#3C6E71"/>
  <circle cx="260" cy="380" r="5" fill="#3C6E71"/>
  <circle cx="240" cy="400" r="5" fill="#3C6E71"/>
</svg>